<svg width="151" height="148" viewBox="0 0 151 148" fill="none" xmlns="http://www.w3.org/2000/svg">
<path d="M126.253 77.7087C125.57 76.9296 124.992 76.0796 124.515 75.1821C124.28 99.3037 104.538 118.857 80.3 118.857C55.9172 118.857 36.0798 99.0698 36.0798 74.7488C36.0798 50.4279 55.9172 30.6409 80.3 30.6409C101.276 30.6409 118.887 45.2847 123.399 64.8604L127.403 35.1669L127.494 34.4993C116.091 21.2161 99.1654 12.7828 80.3 12.7828C65.5818 12.7828 52.045 17.918 41.3894 26.4822V27.1234V27.691V40.268V40.7673C41.3894 49.1681 37.0242 56.8378 30.117 61.2204V110.382V111.229C41.4264 126.665 59.7072 136.714 80.3 136.714C101.939 136.714 121.026 125.619 132.153 108.834V107.926V81.594C129.895 80.8615 127.85 79.5307 126.253 77.7087Z" fill="#64646A"/>
<path d="M80.3 38.1372C60.0609 38.1372 43.5947 54.5611 43.5947 74.7493C43.5947 94.9376 60.0604 111.361 80.3 111.361C100.54 111.361 117.005 94.9376 117.005 74.7493C117.005 54.5611 100.539 38.1372 80.3 38.1372Z" fill="#64646A"/>
<path d="M150.522 6.23393C150.522 3.0437 147.93 0.457642 144.731 0.457642C141.831 0.457642 139.379 2.59695 138.992 5.46386L130.531 68.2034C130.308 69.855 130.811 71.5216 131.91 72.7759C133.01 74.0302 134.599 74.7493 136.269 74.7493H139.667V142.045C139.667 145.081 142.135 147.542 145.178 147.542C148.222 147.542 150.689 145.081 150.689 142.045L150.522 6.23393Z" fill="#64646A"/>
<path d="M33.8744 7.45372C33.8744 5.38338 32.1926 3.70581 30.117 3.70581C28.0414 3.70581 26.3595 5.38338 26.3595 7.45372V28.1917H20.8486V7.45372C20.8486 5.38338 19.1668 3.70581 17.0912 3.70581C15.0156 3.70581 13.3337 5.38338 13.3337 7.45372V28.1917H7.82279V7.45372C7.82279 5.38338 6.14096 3.70581 4.06534 3.70581C1.98973 3.70581 0.307892 5.38338 0.307892 7.45372V41.2679C0.307892 48.5733 5.02575 54.7969 11.5802 57.0771V142.045C11.5802 145.081 14.0476 147.542 17.0912 147.542C20.1347 147.542 22.6021 145.081 22.6021 142.045V57.0771C29.1566 54.7969 33.8744 48.5733 33.8744 41.2679V7.45372Z" fill="#64646A"/>
</svg>
