<svg width="151" height="150" viewBox="0 0 151 150" fill="none" xmlns="http://www.w3.org/2000/svg">
<g clip-path="url(#clip0_1_112)">
<path d="M116.764 51.6431C115.089 50.5733 114.214 48.6526 114.537 46.7507C118.654 22.3889 99.7957 0.345636 75.5337 0.0040446C50.2716 -0.3535 30.9295 22.3538 35.464 47.2453C35.8027 49.1156 35.0406 51.0331 33.5228 52.1279C29.3236 55.1591 27.0029 60.058 27.3165 65.2254C28.135 78.7148 45.0698 84.2447 53.7787 74.0623C53.901 74.1374 54.0265 74.2156 54.1488 74.2879C55.4283 75.0605 56.1904 76.3803 56.1904 77.8195V84.2853C56.1904 86.7378 57.1657 89.0273 58.9376 90.7321C64.5835 96.165 74.1538 92.2689 74.1538 84.1289V69.4765C74.1538 65.9073 78.3311 64.0148 80.8776 66.4832C81.6553 67.2371 82.0818 68.2443 82.0818 69.3201V76.8276C82.0818 81.8523 86.2412 85.9598 91.3929 85.7837C98.1637 85.5331 99.6031 80.4284 99.9763 76.5523C109.728 83.4198 123.259 76.7237 123.704 64.866C123.901 59.5666 121.242 54.4991 116.764 51.6431ZM68.8225 20.8908C66.6802 21.6028 66.5451 21.9791 65.6017 21.9791C62.9194 21.9791 62.1232 18.3308 64.5417 17.2087C65.4198 16.8021 66.3293 16.4423 67.2482 16.1389C68.5653 15.7041 69.9828 16.4173 70.4188 17.7311C70.8515 19.0421 70.1396 20.4588 68.8225 20.8908ZM53.1045 37.1223C51.4759 37.1223 50.277 35.6021 50.6646 34.0224C51.5584 30.4 53.2895 26.9528 55.6792 24.0593C56.5573 22.9926 58.141 22.8393 59.2104 23.7152C60.2798 24.5942 60.4335 26.1708 59.5522 27.2375C57.6392 29.5585 56.2531 32.3144 55.5381 35.2173C55.2589 36.3594 54.2334 37.1223 53.1045 37.1223ZM104.968 83.97C106.443 84.2469 107.296 85.799 106.743 87.1907L84.2987 143.717C80.9795 152.093 68.9345 152.097 65.614 143.717L43.2362 87.3653C42.6629 85.922 43.6034 84.337 45.1451 84.1227C46.1584 83.9816 47.1653 83.7636 48.1557 83.4664C49.6115 83.0297 51.1005 84.0126 51.2451 85.5219C51.479 87.9646 52.3599 91.3608 55.4531 94.336C63.1393 101.729 75.3321 97.99 78.4346 88.7379C78.9687 87.1451 80.9284 86.617 82.2365 87.6743C88.3578 92.6227 98.0837 91.6677 102.497 84.9554C102.986 84.2121 103.906 83.7705 104.968 83.97Z" fill="#64646A"/>
</g>
<defs>
<clipPath id="clip0_1_112">
<rect width="150.382" height="150" fill="white" transform="translate(0.310425)"/>
</clipPath>
</defs>
</svg>
