<svg width="31" height="31" viewBox="0 0 31 31" fill="none" xmlns="http://www.w3.org/2000/svg">
<g id="instagram">
<path id="Vector" d="M26.9409 10.6469C26.9272 9.70069 26.7522 8.76194 26.4172 7.87694C25.8309 6.36569 24.6372 5.17069 23.1259 4.58569C22.2522 4.25694 21.3284 4.08069 20.3934 4.06069C19.1909 4.00694 18.8097 3.99194 15.7572 3.99194C12.7047 3.99194 12.3134 3.99194 11.1197 4.06069C10.1859 4.08069 9.2622 4.25694 8.38845 4.58569C6.8772 5.17069 5.6822 6.36569 5.0972 7.87694C4.76845 8.75069 4.59095 9.67444 4.57345 10.6082C4.5197 11.8119 4.50345 12.1932 4.50345 15.2457C4.50345 18.2982 4.50345 18.6882 4.57345 19.8832C4.5922 20.8182 4.76845 21.7407 5.0972 22.6169C5.68345 24.1269 6.8772 25.3219 8.3897 25.9069C9.2597 26.2469 10.1834 26.4394 11.1209 26.4694C12.3247 26.5232 12.7059 26.5394 15.7584 26.5394C18.8109 26.5394 19.2022 26.5394 20.3959 26.4694C21.3297 26.4507 22.2534 26.2744 23.1284 25.9457C24.6397 25.3594 25.8335 24.1644 26.4197 22.6544C26.7484 21.7794 26.9247 20.8569 26.9434 19.9207C26.9972 18.7182 27.0134 18.3369 27.0134 15.2832C27.0109 12.2307 27.011 11.8432 26.9409 10.6469ZM15.7497 21.0182C12.5572 21.0182 9.97095 18.4319 9.97095 15.2394C9.97095 12.0469 12.5572 9.46069 15.7497 9.46069C18.9397 9.46069 21.5285 12.0469 21.5285 15.2394C21.5285 18.4319 18.9397 21.0182 15.7497 21.0182ZM21.7584 10.5944C21.0122 10.5944 20.4109 9.99194 20.4109 9.24694C20.4109 8.50194 21.0122 7.89944 21.7584 7.89944C22.5022 7.89944 23.1047 8.50194 23.1047 9.24694C23.1047 9.99194 22.5022 10.5944 21.7584 10.5944Z" fill="#64646A"/>
<path id="Vector_2" d="M15.7497 18.9932C17.8228 18.9932 19.5034 17.3125 19.5034 15.2394C19.5034 13.1663 17.8228 11.4857 15.7497 11.4857C13.6766 11.4857 11.9959 13.1663 11.9959 15.2394C11.9959 17.3125 13.6766 18.9932 15.7497 18.9932Z" fill="#64646A"/>
</g>
</svg>
