<svg width="29" height="29" viewBox="0 0 29 29" fill="none" xmlns="http://www.w3.org/2000/svg">
<g id="email" clip-path="url(#clip0_1_292)">
<g id="Group">
<g id="Group_2">
<path id="Vector" d="M18.9001 15.4279L16.5551 17.7808C15.6041 18.7351 13.9309 18.7557 12.9594 17.7808L10.6142 15.4279L2.19144 23.8779C2.50496 24.0229 2.85064 24.1094 3.21814 24.1094H26.2963C26.6638 24.1094 27.0093 24.023 27.3228 23.878L18.9001 15.4279Z" fill="#64646A"/>
</g>
</g>
<g id="Group_3">
<g id="Group_4">
<path id="Vector_2" d="M26.2963 4.42194H3.21814C2.85064 4.42194 2.50496 4.50845 2.19154 4.65343L11.1918 13.6836C11.1924 13.6842 11.1932 13.6843 11.1938 13.6849C11.1944 13.6855 11.1945 13.6863 11.1945 13.6863L14.121 16.6225C14.4318 16.9333 15.0827 16.9333 15.3935 16.6225L18.3194 13.6868C18.3194 13.6868 18.3201 13.6855 18.3207 13.6849C18.3207 13.6849 18.3221 13.6842 18.3227 13.6836L27.3227 4.65337C27.0093 4.50834 26.6638 4.42194 26.2963 4.42194Z" fill="#64646A"/>
</g>
</g>
<g id="Group_5">
<g id="Group_6">
<path id="Vector_3" d="M1.01894 5.80072C0.856733 6.12874 0.757202 6.49285 0.757202 6.88288V21.6485C0.757202 22.0385 0.856624 22.4026 1.01888 22.7307L9.45623 14.266L1.01894 5.80072Z" fill="#64646A"/>
</g>
</g>
<g id="Group_7">
<g id="Group_8">
<path id="Vector_4" d="M28.4955 5.8006L20.0582 14.266L28.4955 22.7308C28.6577 22.4027 28.7572 22.0386 28.7572 21.6485V6.88286C28.7572 6.49272 28.6577 6.12861 28.4955 5.8006Z" fill="#64646A"/>
</g>
</g>
</g>
<defs>
<clipPath id="clip0_1_292">
<rect width="28" height="28" fill="white" transform="translate(0.757202 0.265686)"/>
</clipPath>
</defs>
</svg>
