<svg width="31" height="31" viewBox="0 0 31 31" fill="none" xmlns="http://www.w3.org/2000/svg">
<g id="linkedin">
<path id="Vector" d="M6.98595 9.26193C8.49644 9.26193 9.72095 8.03743 9.72095 6.52693C9.72095 5.01643 8.49644 3.79193 6.98595 3.79193C5.47545 3.79193 4.25095 5.01643 4.25095 6.52693C4.25095 8.03743 5.47545 9.26193 6.98595 9.26193Z" fill="#64646A"/>
<path id="Vector_2" d="M12.3034 11.3344V26.5082H17.0147V19.0044C17.0147 17.0244 17.3872 15.1069 19.8422 15.1069C22.2634 15.1069 22.2934 17.3707 22.2934 19.1294V26.5094H27.0072V18.1882C27.0072 14.1007 26.1272 10.9594 21.3497 10.9594C19.0559 10.9594 17.5184 12.2182 16.8897 13.4094H16.8259V11.3344H12.3034ZM4.62595 11.3344H9.3447V26.5082H4.62595V11.3344Z" fill="#64646A"/>
</g>
</svg>
