<svg width="31" height="31" viewBox="0 0 31 31" fill="none" xmlns="http://www.w3.org/2000/svg">
<g id="phone">
<path id="Vector" d="M23.4655 18.2403C22.6258 18.0597 21.9616 18.4496 21.3735 18.7901C20.7711 19.1408 19.6258 20.0699 18.9693 19.8322C15.6082 18.4483 12.4471 15.5064 11.0786 12.1318C10.8375 11.4613 11.7622 10.3088 12.1104 9.69933C12.4484 9.1094 12.8301 8.4389 12.656 7.59298C12.4987 6.83282 10.4634 4.2431 9.74374 3.53492C9.2691 3.06713 8.78286 2.80985 8.28374 2.76826C6.40714 2.6877 4.31129 5.19167 3.94371 5.7907C3.02283 7.06802 3.02799 8.76766 3.95919 10.8285C6.20336 16.3641 14.6912 24.7179 20.2475 27.0464C21.2728 27.5259 22.2104 27.7663 23.0527 27.7663C23.8768 27.7663 24.6107 27.5363 25.2415 27.0803C25.7173 26.8061 28.324 24.6062 28.2556 22.6792C28.2143 22.1879 27.9577 21.6968 27.496 21.2212C26.793 20.4948 24.22 18.3989 23.4655 18.2403Z" fill="#64646A"/>
</g>
</svg>
