<svg width="121" height="25" viewBox="0 0 121 25" fill="none" xmlns="http://www.w3.org/2000/svg">
<path d="M22.1772 9.44902C22.0482 9.07102 21.7072 8.80402 21.3092 8.77302L15.6082 8.32002L13.1412 2.85902C12.9802 2.50002 12.6232 2.27002 12.2302 2.27002C11.8372 2.27002 11.4802 2.50002 11.3192 2.85802L8.85219 8.32002L3.15119 8.77302C2.76019 8.80402 2.42319 9.06102 2.29019 9.43002C2.15719 9.79902 2.25119 10.212 2.53219 10.486L6.74519 14.593L5.25519 21.045C5.16319 21.444 5.32419 21.859 5.66119 22.092C5.83319 22.21 6.03119 22.27 6.23019 22.27C6.42319 22.27 6.61719 22.214 6.78519 22.102L12.2302 18.472L17.6752 22.102C18.0232 22.334 18.4802 22.325 18.8202 22.078C19.1582 21.831 19.3072 21.398 19.1922 20.996L17.3632 14.596L21.8992 10.514C22.1962 10.246 22.3052 9.82802 22.1772 9.44902Z" fill="#FFB700"/>
<path d="M46.1772 9.44902C46.0482 9.07102 45.7072 8.80402 45.3092 8.77302L39.6082 8.32002L37.1412 2.85902C36.9802 2.50002 36.6232 2.27002 36.2302 2.27002C35.8372 2.27002 35.4802 2.50002 35.3192 2.85802L32.8522 8.32002L27.1512 8.77302C26.7602 8.80402 26.4232 9.06102 26.2902 9.43002C26.1572 9.79902 26.2512 10.212 26.5322 10.486L30.7452 14.593L29.2552 21.045C29.1632 21.444 29.3242 21.859 29.6612 22.092C29.8332 22.21 30.0312 22.27 30.2302 22.27C30.4232 22.27 30.6172 22.214 30.7852 22.102L36.2302 18.472L41.6752 22.102C42.0232 22.334 42.4802 22.325 42.8202 22.078C43.1582 21.831 43.3072 21.398 43.1922 20.996L41.3632 14.596L45.8992 10.514C46.1962 10.246 46.3052 9.82802 46.1772 9.44902Z" fill="#FFB700"/>
<path d="M70.1772 9.44902C70.0482 9.07102 69.7072 8.80402 69.3092 8.77302L63.6082 8.32002L61.1412 2.85902C60.9802 2.50002 60.6232 2.27002 60.2302 2.27002C59.8372 2.27002 59.4802 2.50002 59.3192 2.85802L56.8522 8.32002L51.1512 8.77302C50.7602 8.80402 50.4232 9.06102 50.2902 9.43002C50.1572 9.79902 50.2512 10.212 50.5322 10.486L54.7452 14.593L53.2552 21.045C53.1632 21.444 53.3242 21.859 53.6612 22.092C53.8332 22.21 54.0312 22.27 54.2302 22.27C54.4232 22.27 54.6172 22.214 54.7852 22.102L60.2302 18.472L65.6752 22.102C66.0232 22.334 66.4802 22.325 66.8202 22.078C67.1582 21.831 67.3072 21.398 67.1922 20.996L65.3632 14.596L69.8992 10.514C70.1962 10.246 70.3052 9.82802 70.1772 9.44902Z" fill="#FFB700"/>
<path d="M94.1772 9.44902C94.0482 9.07102 93.7072 8.80402 93.3092 8.77302L87.6082 8.32002L85.1412 2.85902C84.9802 2.50002 84.6232 2.27002 84.2302 2.27002C83.8372 2.27002 83.4802 2.50002 83.3192 2.85802L80.8522 8.32002L75.1512 8.77302C74.7602 8.80402 74.4232 9.06102 74.2902 9.43002C74.1572 9.79902 74.2512 10.212 74.5322 10.486L78.7452 14.593L77.2552 21.045C77.1632 21.444 77.3242 21.859 77.6612 22.092C77.8332 22.21 78.0312 22.27 78.2302 22.27C78.4232 22.27 78.6172 22.214 78.7852 22.102L84.2302 18.472L89.6752 22.102C90.0232 22.334 90.4802 22.325 90.8202 22.078C91.1582 21.831 91.3072 21.398 91.1922 20.996L89.3632 14.596L93.8992 10.514C94.1962 10.246 94.3052 9.82802 94.1772 9.44902Z" fill="#FFB700"/>
<path d="M118.177 9.44902C118.048 9.07102 117.707 8.80402 117.309 8.77302L111.608 8.32002L109.141 2.85902C108.98 2.50002 108.623 2.27002 108.23 2.27002C107.837 2.27002 107.48 2.50002 107.319 2.85802L104.852 8.32002L99.1512 8.77302C98.7602 8.80402 98.4232 9.06102 98.2902 9.43002C98.1572 9.79902 98.2512 10.212 98.5322 10.486L102.745 14.593L101.255 21.045C101.163 21.444 101.324 21.859 101.661 22.092C101.833 22.21 102.031 22.27 102.23 22.27C102.423 22.27 102.617 22.214 102.785 22.102L108.23 18.472L113.675 22.102C114.023 22.334 114.48 22.325 114.82 22.078C115.158 21.831 115.307 21.398 115.192 20.996L113.363 14.596L117.899 10.514C118.196 10.246 118.305 9.82802 118.177 9.44902Z" fill="#FFB700"/>
</svg>
