<svg width="31" height="31" viewBox="0 0 31 31" fill="none" xmlns="http://www.w3.org/2000/svg">
<g id="twitter">
<path id="Vector" d="M25.2985 10.2619C25.3147 10.4807 25.3147 10.6982 25.3147 10.9157C25.3147 17.5719 20.2485 25.2419 10.9897 25.2419C8.1372 25.2419 5.4872 24.4157 3.2572 22.9807C3.6622 23.0269 4.0522 23.0432 4.47345 23.0432C6.8272 23.0432 8.99345 22.2482 10.7247 20.8919C8.51095 20.8457 6.65595 19.3957 6.01595 17.4007C6.3272 17.4469 6.6397 17.4782 6.9672 17.4782C7.41845 17.4782 7.8722 17.4157 8.29345 17.3069C5.9847 16.8394 4.25595 14.8132 4.25595 12.3657V12.3032C4.9272 12.6769 5.70595 12.9107 6.53095 12.9419C5.1747 12.0394 4.28595 10.4957 4.28595 8.74943C4.28595 7.81443 4.5347 6.95693 4.97095 6.20943C7.4497 9.26318 11.176 11.2594 15.3535 11.4782C15.276 11.1032 15.2285 10.7144 15.2285 10.3244C15.2285 7.54943 17.4735 5.28943 20.2635 5.28943C21.7135 5.28943 23.0222 5.89693 23.9422 6.87943C25.0797 6.66068 26.1697 6.23943 27.1372 5.66318C26.7635 6.83193 25.9672 7.81443 24.9235 8.43818C25.9372 8.32818 26.9197 8.04818 27.8222 7.65818C27.1372 8.65568 26.281 9.54443 25.2985 10.2619Z" fill="#64646A"/>
</g>
</svg>
